<svg xmlns:xlink="http://www.w3.org/1999/xlink" xmlns="http://www.w3.org/2000/svg" viewBox="0 0 369.7695137611495 163.43454026510943" preserveAspectRatio="xMidYMid meet" class="css-ata32y" id="hecgehhh" width="369.7695137611495"  height="163.43454026510943" ><defs id="SvgjsDefs3246"><linearGradient id="SvgjsLinearGradient3251"><stop id="SvgjsStop3252" stop-color="#00ddff" offset="0"></stop><stop id="SvgjsStop3253" stop-color="#ff00d4" offset="1"></stop></linearGradient><linearGradient id="SvgjsLinearGradient3251"><stop id="SvgjsStop3252" stop-color="#00ddff" offset="0"></stop><stop id="SvgjsStop3253" stop-color="#ff00d4" offset="1"></stop></linearGradient><linearGradient id="SvgjsLinearGradient3251"><stop id="SvgjsStop3252" stop-color="#00ddff" offset="0"></stop><stop id="SvgjsStop3253" stop-color="#ff00d4" offset="1"></stop></linearGradient><linearGradient id="SvgjsLinearGradient3251"><stop id="SvgjsStop3252" stop-color="#00ddff" offset="0"></stop><stop id="SvgjsStop3253" stop-color="#ff00d4" offset="1"></stop></linearGradient><linearGradient id="SvgjsLinearGradient3251"><stop id="SvgjsStop3252" stop-color="#00ddff" offset="0"></stop><stop id="SvgjsStop3253" stop-color="#ff00d4" offset="1"></stop></linearGradient></defs><g id="SvgjsG3247" featurekey="hmhgWD-0" transform="matrix(1.7372679520792733,0,0,1.7372679520792733,-38.51001837563799,-4.646120844257638)" fill="#9E74F3"><g xmlns="http://www.w3.org/2000/svg" fill="#9E74F3"><path fill="none" d="M24.049,87.842c0,3.873,3.152,7.027,7.026,7.027h35.851c3.873,0,7.025-3.154,7.025-7.027v-4.316H24.049V87.842   z M44.636,86.73h7.977c1.1,0,1.994,0.891,1.994,1.992c0,1.104-0.893,1.994-1.994,1.994h-7.977c-1.101,0-1.994-0.891-1.994-1.994   C42.643,87.621,43.536,86.73,44.636,86.73z"></path><path fill="none" d="M66.926,5.133H31.075c-3.874,0-7.026,3.151-7.026,7.025v5.032h49.902v-5.032   C73.951,8.284,70.799,5.133,66.926,5.133z M66.455,13.1c-1.098,0-2.012-0.891-2.012-1.992s0.871-1.991,1.973-1.991h0.039   c1.104,0,1.992,0.89,1.992,1.991S67.559,13.1,66.455,13.1z"></path><path d="M66.455,9.116h-0.039c-1.102,0-1.973,0.89-1.973,1.991s0.914,1.992,2.012,1.992c1.104,0,1.992-0.891,1.992-1.992   S67.559,9.116,66.455,9.116z" fill="#9E74F3"></path><path d="M66.926,3.25H31.075c-4.912,0-8.908,3.996-8.908,8.908v75.684c0,4.912,3.996,8.908,8.908,8.908h35.851   c4.91,0,8.906-3.996,8.906-8.908V12.158C75.832,7.246,71.836,3.25,66.926,3.25z M73.951,87.842c0,3.873-3.152,7.027-7.025,7.027   H31.075c-3.874,0-7.026-3.154-7.026-7.027v-4.316h49.902V87.842z M73.951,81.643H24.049V19.074h49.902V81.643z M73.951,17.19   H24.049v-5.032c0-3.874,3.152-7.025,7.026-7.025h35.851c3.873,0,7.025,3.151,7.025,7.025V17.19z" fill="#9E74F3"></path><path d="M44.636,90.717h7.977c1.102,0,1.994-0.891,1.994-1.994c0-1.102-0.895-1.992-1.994-1.992h-7.977   c-1.101,0-1.994,0.891-1.994,1.992C42.643,89.826,43.536,90.717,44.636,90.717z" fill="#9E74F3"></path></g><g xmlns="http://www.w3.org/2000/svg" fill="#9E74F3"><path fill="#9E74F3" d="M50,29.941c-11.061,0-20.059,8.998-20.059,20.058c0,11.061,8.998,20.06,20.059,20.06   s20.059-8.999,20.059-20.06C70.059,38.939,61.061,29.941,50,29.941z M50,68.059c-9.975,0-18.059-8.086-18.059-18.06   c0-9.973,8.084-18.058,18.059-18.058c9.973,0,18.059,8.085,18.059,18.058C68.059,59.973,59.973,68.059,50,68.059z"></path><path fill="#9E74F3" d="M62.912,44.229c-0.043-0.141-0.484-1.422-2.369-3.309c-1.877-1.878-3.18-2.354-3.322-2.402   c-0.34-0.115-0.717-0.038-0.986,0.2c-0.139,0.124-3.426,3.059-5.383,5.015c-1.711,1.712-1.396,3.45-1.209,4.488   c0.037,0.211,0.088,0.489,0.086,0.627c-0.15,0.144-0.391,0.351-0.674,0.592c-0.384-0.297-0.678-0.531-0.878-0.732l-9.278-9.279   c-0.242-0.241-0.588-0.343-0.924-0.27c-0.334,0.074-0.606,0.313-0.723,0.635c-1.439,3.948,0.375,7.684,2.552,9.863   c1.483,1.482,3.269,2.043,4.842,2.538c0.276,0.087,0.543,0.171,0.796,0.256c-0.835,0.716-1.641,1.436-2.283,2.08   c-2.99,2.99-4.418,5.026-2.861,6.591c0.157,0.158,0.638,0.641,1.455,0.641c1.168,0,2.656-1.014,5.139-3.498   c0.652-0.653,1.383-1.474,2.106-2.321c0.638,0.949,1.403,1.993,2.403,2.993c2.453,2.452,4.045,3.498,5.324,3.498   c0.918,0,1.461-0.545,1.664-0.749c1.561-1.562,0.129-3.565-3.252-6.948c-1.102-1.1-2.051-1.978-2.881-2.704   c0.119-0.137,0.223-0.254,0.307-0.342c0.143,0.001,0.367,0.044,0.607,0.089c0.379,0.071,0.852,0.16,1.375,0.16   c1.184,0,2.209-0.451,3.135-1.377c1.289-1.287,4.865-5.193,5.016-5.359C62.938,44.941,63.02,44.569,62.912,44.229z M60.762,44.354   c-1.029,1.12-3.508,3.807-4.496,4.795c-0.701,0.701-1.287,0.791-1.721,0.791c-0.336,0-0.678-0.064-1.006-0.126   c-0.896-0.169-1.775-0.155-2.33,0.399c-0.127,0.127-0.296,0.317-0.482,0.533c-0.021-0.018-0.043-0.035-0.064-0.052   c0.22-0.19,0.414-0.363,0.543-0.492c0.701-0.701,0.537-1.608,0.405-2.337c-0.169-0.938-0.315-1.747,0.655-2.719   c1.469-1.469,3.783-3.57,4.797-4.483c0.086,0.051,0.189,0.12,0.297,0.189l-3.494,3.495c-0.391,0.391-0.391,1.024,0,1.415   c0.195,0.194,0.451,0.292,0.707,0.292s0.512-0.098,0.707-0.293l3.633-3.634c0.072,0.071,0.141,0.129,0.217,0.205   c0.057,0.058,0.1,0.108,0.154,0.164l-3.635,3.637c-0.391,0.391-0.391,1.024,0,1.415c0.195,0.194,0.451,0.292,0.707,0.292   s0.512-0.098,0.707-0.293l3.502-3.503C60.639,44.157,60.709,44.266,60.762,44.354z M56.973,60.273   c-0.162,0.161-0.197,0.161-0.248,0.161c-0.234,0-1.207-0.21-3.91-2.912c-1.225-1.226-2.103-2.591-2.809-3.688   c-0.517-0.805-0.926-1.439-1.365-1.879c-0.874-0.876-2.099-1.261-3.395-1.669c-1.422-0.446-2.891-0.908-4.027-2.044   c-0.723-0.723-2.758-3.059-2.463-6.128l8.006,8.006c0.348,0.348,0.789,0.688,1.401,1.157c1.175,0.902,2.95,2.266,5.56,4.873   C56.875,59.306,57.014,60.132,56.973,60.273z M41.771,59.762c-0.032-0.027-0.11-0.09-0.11-0.09   c-0.005-0.078,0.032-0.848,2.912-3.728c0.745-0.747,1.744-1.619,2.749-2.465c0.157,0.178,0.336,0.424,0.534,0.72   c-0.819,0.971-1.658,1.931-2.379,2.651C42.813,59.517,41.953,59.748,41.771,59.762z"></path></g></g><g id="SvgjsG3248" featurekey="1RRcwp-0" transform="matrix(2.4929080852478522,0,0,2.4929080852478522,109.75921960804891,42.737729747256594)" fill="url(&quot;#SvgjsLinearGradient3251&quot;)"><path d="M3.96 20 l-2.66 0 l0 -14.24 l9.36 0 l0 2.62 l-6.7 0 l0 2.1 l3.7 0 l0 2.64 l-3.7 0 l0 6.88 z M14.559999999999999 20.22 c-1.24 0 -2.46 -0.5 -3.4 -1.4 c-0.9 -0.94 -1.4 -2.16 -1.4 -3.4 c0 -1.26 0.5 -2.48 1.4 -3.4 c0.92 -0.88 2.12 -1.38 3.4 -1.38 c1.32 0 2.52 0.5 3.38 1.38 c0.92 0.92 1.42 2.12 1.42 3.4 s-0.5 2.48 -1.42 3.4 c-0.9 0.9 -2.1 1.4 -3.38 1.4 z M14.559999999999999 12.92 c-1.34 0 -2.44 1.12 -2.44 2.5 s1.1 2.5 2.44 2.5 c1.36 0 2.46 -1.12 2.46 -2.5 s-1.1 -2.5 -2.46 -2.5 z M25.520000000000003 20.22 c-1.24 0 -2.46 -0.5 -3.4 -1.4 c-0.9 -0.94 -1.4 -2.16 -1.4 -3.4 c0 -1.26 0.5 -2.48 1.4 -3.4 c0.92 -0.88 2.12 -1.38 3.4 -1.38 c1.32 0 2.52 0.5 3.38 1.38 c0.92 0.92 1.42 2.12 1.42 3.4 s-0.5 2.48 -1.42 3.4 c-0.9 0.9 -2.1 1.4 -3.38 1.4 z M25.520000000000003 12.92 c-1.34 0 -2.44 1.12 -2.44 2.5 s1.1 2.5 2.44 2.5 c1.36 0 2.46 -1.12 2.46 -2.5 s-1.1 -2.5 -2.46 -2.5 z M37.1 20 l-4.78 0 l0 -14.24 l4.78 0 c4.02 0 7.3 3.2 7.3 7.12 s-3.28 7.12 -7.3 7.12 z M34.980000000000004 17.38 l2.12 0 c2.56 0 4.64 -2.02 4.64 -4.5 s-2.08 -4.5 -4.64 -4.5 l-2.12 0 l0 9 z M50.220000000000006 20.22 l-0.02 0 c-0.58 0 -1.18 -0.14 -1.74 -0.4 c-0.52 -0.22 -1 -0.58 -1.44 -1.04 c-0.7 -0.76 -1.12 -1.76 -1.22 -2.8 c-0.02 -0.18 -0.04 -0.36 -0.04 -0.56 c0 -0.4 0.06 -0.82 0.16 -1.24 c0.18 -0.8 0.56 -1.54 1.1 -2.1 c0.4 -0.44 0.86 -0.78 1.44 -1.06 c0.54 -0.26 1.14 -0.38 1.76 -0.38 c0.64 0 1.22 0.12 1.76 0.38 c0.6 0.28 1.08 0.64 1.44 1.06 c0.52 0.56 0.92 1.28 1.12 2.1 c0.1 0.38 0.14 0.78 0.14 1.24 l0 0.46 l-6.72 0 l0.02 0.14 c0.26 1.24 1.2 2.14 2.24 2.14 l0.02 0 c0.58 -0.04 1.22 -0.4 1.6 -0.72 l0.22 -0.18 l1.66 1.44 l-0.3 0.26 c-0.22 0.2 -0.5 0.44 -0.8 0.6 l-0.02 0 c-0.72 0.42 -1.5 0.64 -2.38 0.66 z M50.220000000000006 12.719999999999999 c-0.78 0 -1.56 0.54 -1.98 1.38 l-0.08 0.16 l4.14 0 l-0.08 -0.16 c-0.46 -0.86 -1.22 -1.38 -2 -1.38 z M58.96000000000001 20 l-2.6 0 l0 -14.68 l2.6 0 l0 14.68 z M64.62 20 l-2.6 0 l0 -9.16 l2.6 0 l0 9.16 z M63.32000000000001 9.74 c-0.86 0 -1.56 -0.7 -1.56 -1.54 c0 -0.42 0.16 -0.8 0.46 -1.08 c0.3 -0.3 0.68 -0.46 1.1 -0.46 c0.84 0 1.54 0.7 1.54 1.54 s-0.7 1.54 -1.54 1.54 z M72.56000000000002 20 l-2.2 0 l-3.72 -9.16 l2.58 0 l2.24 5.48 l2.22 -5.48 l2.6 0 z M81.48 20.22 l-0.02 0 c-0.58 0 -1.18 -0.14 -1.74 -0.4 c-0.52 -0.22 -1 -0.58 -1.44 -1.04 c-0.7 -0.76 -1.12 -1.76 -1.22 -2.8 c-0.02 -0.18 -0.04 -0.36 -0.04 -0.56 c0 -0.4 0.06 -0.82 0.16 -1.24 c0.18 -0.8 0.56 -1.54 1.1 -2.1 c0.4 -0.44 0.86 -0.78 1.44 -1.06 c0.54 -0.26 1.14 -0.38 1.76 -0.38 c0.64 0 1.22 0.12 1.76 0.38 c0.6 0.28 1.08 0.64 1.44 1.06 c0.52 0.56 0.92 1.28 1.12 2.1 c0.1 0.38 0.14 0.78 0.14 1.24 l0 0.46 l-6.72 0 l0.02 0.14 c0.26 1.24 1.2 2.14 2.24 2.14 l0.02 0 c0.58 -0.04 1.22 -0.4 1.6 -0.72 l0.22 -0.18 l1.66 1.44 l-0.3 0.26 c-0.22 0.2 -0.5 0.44 -0.8 0.6 l-0.02 0 c-0.72 0.42 -1.5 0.64 -2.38 0.66 z M81.48 12.719999999999999 c-0.78 0 -1.56 0.54 -1.98 1.38 l-0.08 0.16 l4.14 0 l-0.08 -0.16 c-0.46 -0.86 -1.22 -1.38 -2 -1.38 z M90.2 20 l-2.52 0 l0 -9.16 l2.52 0 l0 0.74 c0.72 -0.72 1.8 -0.96 2.52 -0.96 l0.6 0 l-0.6 2.5 l-0.38 0 c-1.18 0 -2.14 0.92 -2.14 2.02 l0 4.86 z M98.46000000000001 25.32 l-2.62 0 l2.18 -5.3 l-3.66 -9.18 l2.68 0 l2.28 5.7 l2.32 -5.7 l2.66 0 z" fill="url(&quot;#SvgjsLinearGradient3251&quot;)"></path></g></svg>